<mxfile host="app.diagrams.net" modified="2023-08-25T16:43:16.900Z" agent="Mozilla/5.0 (X11; Linux x86_64; rv:109.0) Gecko/20100101 Firefox/111.0" etag="NJ6dpgZQ79ypMBmMYNBr" version="21.6.9" type="github">
  <diagram id="R2lEEEUBdFMjLlhIrx00" name="Page-1">
    <mxGraphModel dx="1434" dy="718" grid="1" gridSize="10" guides="1" tooltips="1" connect="1" arrows="1" fold="1" page="1" pageScale="1" pageWidth="850" pageHeight="1100" math="0" shadow="0" extFonts="Permanent Marker^https://fonts.googleapis.com/css?family=Permanent+Marker">
      <root>
        <mxCell id="0" />
        <mxCell id="1" parent="0" />
        <mxCell id="mPLSmRDpplUzRRnLBWPF-1" value="Vendedor" style="swimlane;childLayout=stackLayout;horizontal=1;startSize=50;horizontalStack=0;rounded=1;fontSize=14;fontStyle=0;strokeWidth=2;resizeParent=0;resizeLast=1;shadow=0;dashed=0;align=center;arcSize=4;whiteSpace=wrap;html=1;" vertex="1" parent="1">
          <mxGeometry x="10" y="10" width="160" height="120" as="geometry" />
        </mxCell>
        <mxCell id="mPLSmRDpplUzRRnLBWPF-2" value="+Código&lt;br&gt;+Nome&lt;br&gt;&lt;div&gt;+Endereço&lt;/div&gt;&lt;div&gt;+Comissão&lt;/div&gt;" style="align=left;strokeColor=none;fillColor=none;spacingLeft=4;fontSize=12;verticalAlign=top;resizable=0;rotatable=0;part=1;html=1;" vertex="1" parent="mPLSmRDpplUzRRnLBWPF-1">
          <mxGeometry y="50" width="160" height="70" as="geometry" />
        </mxCell>
        <mxCell id="mPLSmRDpplUzRRnLBWPF-8" style="edgeStyle=orthogonalEdgeStyle;rounded=0;orthogonalLoop=1;jettySize=auto;html=1;exitX=1;exitY=0.5;exitDx=0;exitDy=0;entryX=0.006;entryY=0.143;entryDx=0;entryDy=0;entryPerimeter=0;" edge="1" parent="1" source="mPLSmRDpplUzRRnLBWPF-4" target="mPLSmRDpplUzRRnLBWPF-7">
          <mxGeometry relative="1" as="geometry" />
        </mxCell>
        <mxCell id="mPLSmRDpplUzRRnLBWPF-4" value="Atender" style="shape=rhombus;double=1;perimeter=rhombusPerimeter;whiteSpace=wrap;html=1;align=center;" vertex="1" parent="1">
          <mxGeometry x="260" y="47" width="120" height="60" as="geometry" />
        </mxCell>
        <mxCell id="mPLSmRDpplUzRRnLBWPF-5" style="edgeStyle=orthogonalEdgeStyle;rounded=0;orthogonalLoop=1;jettySize=auto;html=1;exitX=1;exitY=0.25;exitDx=0;exitDy=0;entryX=0;entryY=0.5;entryDx=0;entryDy=0;" edge="1" parent="1" source="mPLSmRDpplUzRRnLBWPF-2" target="mPLSmRDpplUzRRnLBWPF-4">
          <mxGeometry relative="1" as="geometry" />
        </mxCell>
        <mxCell id="mPLSmRDpplUzRRnLBWPF-6" value="Cliente" style="swimlane;childLayout=stackLayout;horizontal=1;startSize=50;horizontalStack=0;rounded=1;fontSize=14;fontStyle=0;strokeWidth=2;resizeParent=0;resizeLast=1;shadow=0;dashed=0;align=center;arcSize=4;whiteSpace=wrap;html=1;" vertex="1" parent="1">
          <mxGeometry x="425" y="17" width="160" height="120" as="geometry" />
        </mxCell>
        <mxCell id="mPLSmRDpplUzRRnLBWPF-7" value="+CD&lt;br&gt;+NM&lt;br&gt;&lt;div&gt;+Fat&lt;/div&gt;&lt;div&gt;+Limp. D.C&lt;br&gt;&lt;/div&gt;" style="align=left;strokeColor=none;fillColor=none;spacingLeft=4;fontSize=12;verticalAlign=top;resizable=0;rotatable=0;part=1;html=1;" vertex="1" parent="mPLSmRDpplUzRRnLBWPF-6">
          <mxGeometry y="50" width="160" height="70" as="geometry" />
        </mxCell>
        <mxCell id="mPLSmRDpplUzRRnLBWPF-15" style="edgeStyle=orthogonalEdgeStyle;rounded=0;orthogonalLoop=1;jettySize=auto;html=1;exitX=1;exitY=0.5;exitDx=0;exitDy=0;entryX=-0.012;entryY=0.143;entryDx=0;entryDy=0;entryPerimeter=0;" edge="1" parent="1" source="mPLSmRDpplUzRRnLBWPF-9" target="mPLSmRDpplUzRRnLBWPF-14">
          <mxGeometry relative="1" as="geometry" />
        </mxCell>
        <mxCell id="mPLSmRDpplUzRRnLBWPF-9" value="Faz" style="shape=rhombus;double=1;perimeter=rhombusPerimeter;whiteSpace=wrap;html=1;align=center;" vertex="1" parent="1">
          <mxGeometry x="640" y="54" width="120" height="60" as="geometry" />
        </mxCell>
        <mxCell id="mPLSmRDpplUzRRnLBWPF-12" style="edgeStyle=orthogonalEdgeStyle;rounded=0;orthogonalLoop=1;jettySize=auto;html=1;exitX=1;exitY=0.25;exitDx=0;exitDy=0;" edge="1" parent="1" source="mPLSmRDpplUzRRnLBWPF-7" target="mPLSmRDpplUzRRnLBWPF-9">
          <mxGeometry relative="1" as="geometry" />
        </mxCell>
        <mxCell id="mPLSmRDpplUzRRnLBWPF-21" style="edgeStyle=orthogonalEdgeStyle;rounded=0;orthogonalLoop=1;jettySize=auto;html=1;exitX=0.5;exitY=1;exitDx=0;exitDy=0;entryX=1;entryY=0.5;entryDx=0;entryDy=0;" edge="1" parent="1" source="mPLSmRDpplUzRRnLBWPF-13" target="mPLSmRDpplUzRRnLBWPF-19">
          <mxGeometry relative="1" as="geometry" />
        </mxCell>
        <mxCell id="mPLSmRDpplUzRRnLBWPF-24" style="edgeStyle=orthogonalEdgeStyle;rounded=0;orthogonalLoop=1;jettySize=auto;html=1;exitX=0.75;exitY=1;exitDx=0;exitDy=0;entryX=0.5;entryY=0;entryDx=0;entryDy=0;" edge="1" parent="1" source="mPLSmRDpplUzRRnLBWPF-13" target="mPLSmRDpplUzRRnLBWPF-23">
          <mxGeometry relative="1" as="geometry" />
        </mxCell>
        <mxCell id="mPLSmRDpplUzRRnLBWPF-13" value="Pedido" style="swimlane;childLayout=stackLayout;horizontal=1;startSize=50;horizontalStack=0;rounded=1;fontSize=14;fontStyle=0;strokeWidth=2;resizeParent=0;resizeLast=1;shadow=0;dashed=0;align=center;arcSize=4;whiteSpace=wrap;html=1;" vertex="1" parent="1">
          <mxGeometry x="860" y="23" width="160" height="123" as="geometry" />
        </mxCell>
        <mxCell id="mPLSmRDpplUzRRnLBWPF-14" value="+Num&lt;br&gt;+Data&lt;br&gt;&lt;div&gt;+Código&lt;/div&gt;&lt;div&gt;+Nome&lt;br&gt;&lt;/div&gt;" style="align=left;strokeColor=none;fillColor=none;spacingLeft=4;fontSize=12;verticalAlign=top;resizable=0;rotatable=0;part=1;html=1;" vertex="1" parent="mPLSmRDpplUzRRnLBWPF-13">
          <mxGeometry y="50" width="160" height="73" as="geometry" />
        </mxCell>
        <mxCell id="mPLSmRDpplUzRRnLBWPF-22" style="edgeStyle=orthogonalEdgeStyle;rounded=0;orthogonalLoop=1;jettySize=auto;html=1;exitX=0;exitY=0.5;exitDx=0;exitDy=0;entryX=0.5;entryY=1;entryDx=0;entryDy=0;" edge="1" parent="1" source="mPLSmRDpplUzRRnLBWPF-19" target="mPLSmRDpplUzRRnLBWPF-2">
          <mxGeometry relative="1" as="geometry" />
        </mxCell>
        <mxCell id="mPLSmRDpplUzRRnLBWPF-19" value="Tem" style="shape=rhombus;double=1;perimeter=rhombusPerimeter;whiteSpace=wrap;html=1;align=center;" vertex="1" parent="1">
          <mxGeometry x="445" y="200" width="120" height="60" as="geometry" />
        </mxCell>
        <mxCell id="mPLSmRDpplUzRRnLBWPF-27" style="edgeStyle=orthogonalEdgeStyle;rounded=0;orthogonalLoop=1;jettySize=auto;html=1;exitX=0;exitY=0.5;exitDx=0;exitDy=0;entryX=1;entryY=0.5;entryDx=0;entryDy=0;" edge="1" parent="1" source="mPLSmRDpplUzRRnLBWPF-23" target="mPLSmRDpplUzRRnLBWPF-25">
          <mxGeometry relative="1" as="geometry" />
        </mxCell>
        <mxCell id="mPLSmRDpplUzRRnLBWPF-23" value="Tem" style="shape=rhombus;double=1;perimeter=rhombusPerimeter;whiteSpace=wrap;html=1;align=center;" vertex="1" parent="1">
          <mxGeometry x="920" y="370" width="120" height="60" as="geometry" />
        </mxCell>
        <mxCell id="mPLSmRDpplUzRRnLBWPF-25" value="Peças" style="swimlane;childLayout=stackLayout;horizontal=1;startSize=50;horizontalStack=0;rounded=1;fontSize=14;fontStyle=0;strokeWidth=2;resizeParent=0;resizeLast=1;shadow=0;dashed=0;align=center;arcSize=4;whiteSpace=wrap;html=1;" vertex="1" parent="1">
          <mxGeometry x="700" y="338.5" width="160" height="123" as="geometry" />
        </mxCell>
        <mxCell id="mPLSmRDpplUzRRnLBWPF-26" value="+CD&lt;br&gt;+DS&lt;br&gt;&lt;div&gt;+Preço&lt;/div&gt;" style="align=left;strokeColor=none;fillColor=none;spacingLeft=4;fontSize=12;verticalAlign=top;resizable=0;rotatable=0;part=1;html=1;" vertex="1" parent="mPLSmRDpplUzRRnLBWPF-25">
          <mxGeometry y="50" width="160" height="73" as="geometry" />
        </mxCell>
        <mxCell id="mPLSmRDpplUzRRnLBWPF-32" style="edgeStyle=orthogonalEdgeStyle;rounded=0;orthogonalLoop=1;jettySize=auto;html=1;exitX=0;exitY=0.5;exitDx=0;exitDy=0;entryX=0.994;entryY=0.158;entryDx=0;entryDy=0;entryPerimeter=0;" edge="1" parent="1" source="mPLSmRDpplUzRRnLBWPF-28" target="mPLSmRDpplUzRRnLBWPF-31">
          <mxGeometry relative="1" as="geometry" />
        </mxCell>
        <mxCell id="mPLSmRDpplUzRRnLBWPF-28" value="Tem" style="shape=rhombus;double=1;perimeter=rhombusPerimeter;whiteSpace=wrap;html=1;align=center;" vertex="1" parent="1">
          <mxGeometry x="490" y="376" width="120" height="60" as="geometry" />
        </mxCell>
        <mxCell id="mPLSmRDpplUzRRnLBWPF-29" style="edgeStyle=orthogonalEdgeStyle;rounded=0;orthogonalLoop=1;jettySize=auto;html=1;exitX=0;exitY=0.25;exitDx=0;exitDy=0;entryX=1;entryY=0.5;entryDx=0;entryDy=0;" edge="1" parent="1" source="mPLSmRDpplUzRRnLBWPF-26" target="mPLSmRDpplUzRRnLBWPF-28">
          <mxGeometry relative="1" as="geometry" />
        </mxCell>
        <mxCell id="mPLSmRDpplUzRRnLBWPF-30" value="Pedido" style="swimlane;childLayout=stackLayout;horizontal=1;startSize=50;horizontalStack=0;rounded=1;fontSize=14;fontStyle=0;strokeWidth=2;resizeParent=0;resizeLast=1;shadow=0;dashed=0;align=center;arcSize=4;whiteSpace=wrap;html=1;" vertex="1" parent="1">
          <mxGeometry x="240" y="344.5" width="160" height="123" as="geometry" />
        </mxCell>
        <mxCell id="mPLSmRDpplUzRRnLBWPF-31" value="+CD&lt;br&gt;+ED" style="align=left;strokeColor=none;fillColor=none;spacingLeft=4;fontSize=12;verticalAlign=top;resizable=0;rotatable=0;part=1;html=1;" vertex="1" parent="mPLSmRDpplUzRRnLBWPF-30">
          <mxGeometry y="50" width="160" height="73" as="geometry" />
        </mxCell>
        <mxCell id="mPLSmRDpplUzRRnLBWPF-33" value="1" style="text;html=1;align=center;verticalAlign=middle;resizable=0;points=[];autosize=1;strokeColor=none;fillColor=none;" vertex="1" parent="1">
          <mxGeometry x="175" y="58" width="30" height="30" as="geometry" />
        </mxCell>
        <mxCell id="mPLSmRDpplUzRRnLBWPF-34" value="n" style="text;html=1;align=center;verticalAlign=middle;resizable=0;points=[];autosize=1;strokeColor=none;fillColor=none;" vertex="1" parent="1">
          <mxGeometry x="385" y="58" width="30" height="30" as="geometry" />
        </mxCell>
        <mxCell id="mPLSmRDpplUzRRnLBWPF-35" value="1" style="text;html=1;align=center;verticalAlign=middle;resizable=0;points=[];autosize=1;strokeColor=none;fillColor=none;" vertex="1" parent="1">
          <mxGeometry x="595" y="58" width="30" height="30" as="geometry" />
        </mxCell>
        <mxCell id="mPLSmRDpplUzRRnLBWPF-36" value="n" style="text;html=1;align=center;verticalAlign=middle;resizable=0;points=[];autosize=1;strokeColor=none;fillColor=none;" vertex="1" parent="1">
          <mxGeometry x="785" y="58" width="30" height="30" as="geometry" />
        </mxCell>
        <mxCell id="mPLSmRDpplUzRRnLBWPF-37" value="n" style="text;html=1;align=center;verticalAlign=middle;resizable=0;points=[];autosize=1;strokeColor=none;fillColor=none;" vertex="1" parent="1">
          <mxGeometry x="695" y="208" width="30" height="30" as="geometry" />
        </mxCell>
        <mxCell id="mPLSmRDpplUzRRnLBWPF-38" value="1" style="text;html=1;align=center;verticalAlign=middle;resizable=0;points=[];autosize=1;strokeColor=none;fillColor=none;" vertex="1" parent="1">
          <mxGeometry x="235" y="208" width="30" height="30" as="geometry" />
        </mxCell>
        <mxCell id="mPLSmRDpplUzRRnLBWPF-39" value="1" style="text;html=1;align=center;verticalAlign=middle;resizable=0;points=[];autosize=1;strokeColor=none;fillColor=none;" vertex="1" parent="1">
          <mxGeometry x="975" y="258" width="30" height="30" as="geometry" />
        </mxCell>
        <mxCell id="mPLSmRDpplUzRRnLBWPF-40" value="n" style="text;html=1;align=center;verticalAlign=middle;resizable=0;points=[];autosize=1;strokeColor=none;fillColor=none;" vertex="1" parent="1">
          <mxGeometry x="875" y="379" width="30" height="30" as="geometry" />
        </mxCell>
        <mxCell id="mPLSmRDpplUzRRnLBWPF-41" value="n" style="text;html=1;align=center;verticalAlign=middle;resizable=0;points=[];autosize=1;strokeColor=none;fillColor=none;" vertex="1" parent="1">
          <mxGeometry x="635" y="386" width="30" height="30" as="geometry" />
        </mxCell>
        <mxCell id="mPLSmRDpplUzRRnLBWPF-42" value="1" style="text;html=1;align=center;verticalAlign=middle;resizable=0;points=[];autosize=1;strokeColor=none;fillColor=none;" vertex="1" parent="1">
          <mxGeometry x="425" y="385" width="30" height="30" as="geometry" />
        </mxCell>
      </root>
    </mxGraphModel>
  </diagram>
</mxfile>
